<?xml version="1.0" encoding="utf-8"?>
<!-- Generator: Adobe Illustrator 27.7.0, SVG Export Plug-In . SVG Version: 6.00 Build 0)  -->
<svg version="1.1" id="Layer_1" xmlns="http://www.w3.org/2000/svg" xmlns:xlink="http://www.w3.org/1999/xlink" x="0px" y="0px"
	 viewBox="0 0 241 34" style="enable-background:new 0 0 241 34;" xml:space="preserve">
<style type="text/css">
	.st0{fill:#005BAC;}
	.st1{fill:url(#SVGID_1_);}
</style>
<g>
	<g transform="translate(-48 -71)">
	</g>
</g>
<path class="st0" d="M118.1,25.8V0.3h-2.7v9.8c-0.5-0.4-1-0.8-1.6-1.2c-1.9-1.1-4-1.4-6.2-1.2c-2.2,0.3-4.1,1.1-5.6,2.8
	c-1.8,2-2.4,4.5-2.2,7.1c0.2,2.1,0.9,4,2.4,5.6c2.8,2.8,7.7,3.5,11.3,1.6c0.7-0.4,1.4-0.9,1.9-1.4v2.4
	C115.4,25.8,118.1,25.8,118.1,25.8z M115.4,16.7v0.2c-0.1,2.7-1.1,4.8-3.5,6c-3.7,1.8-8.9,0.1-9.5-5.2c-0.2-2.3,0.3-4.4,2.1-6
	c2-1.8,4.4-2,6.8-1.2c2.4,0.9,3.6,2.7,4,5.1C115.4,16,115.4,16.4,115.4,16.7 M144.2,16.8c0-0.3,0-0.7-0.1-1.1
	c-0.4-2.5-1.6-4.3-4-5.2c-2.5-0.9-4.9-0.6-6.9,1.2c-1.7,1.6-2.3,3.6-2,5.9c0.5,5.3,5.9,7.1,9.6,5.1
	C143.2,21.6,144.1,19.4,144.2,16.8 M146.8,16.6c0,3.1-1,5.6-3.3,7.4c-2,1.6-4.3,2.1-6.8,1.9c-2.2-0.2-4.1-0.9-5.6-2.5
	c-1.6-1.6-2.4-3.5-2.6-5.8c-0.2-2.7,0.4-5.1,2.2-7.1c1.5-1.7,3.4-2.5,5.7-2.8c2.2-0.3,4.2,0.1,6.2,1.2c2.5,1.4,3.8,3.6,4.2,6.4
	C146.8,15.8,146.8,16.3,146.8,16.6 M125.5,25.8c0,0-1.8,0-2.5,0V7.9h2.6L125.5,25.8L125.5,25.8L125.5,25.8z M122.4,2.7
	c0-1.1,0.7-1.8,1.7-1.8c1,0,1.7,0.8,1.7,1.8s-0.7,1.8-1.8,1.8C123.1,4.5,122.4,3.8,122.4,2.7 M182,16.8c0-0.3,0-0.7-0.1-1.1
	c-0.4-2.5-1.6-4.3-4-5.1c-2.4-0.9-4.8-0.6-6.8,1.2c-1.8,1.6-2.3,3.7-2.1,6c0.6,5.3,5.7,7,9.5,5.2C181,21.7,181.9,19.5,182,16.8
	 M184.7,16.8c-0.1,3.6-1.4,6.4-4.6,8.1c-3.6,2-8.6,1.3-11.3-1.6c-1.5-1.6-2.3-3.5-2.4-5.6c-0.2-2.7,0.4-5.1,2.2-7.1
	c1.5-1.7,3.4-2.5,5.6-2.8c2.2-0.3,4.3,0.1,6.2,1.2c2.4,1.4,3.7,3.6,4.1,6.4C184.6,15.8,184.6,16.3,184.7,16.8 M76.9,17L76.9,17
	L76.9,17c0-0.5,0-1-0.1-1.5c-0.4-2.8-1.7-5-4.1-6.4c-1.9-1.1-4-1.4-6.2-1.2c-2.2,0.3-4.1,1.1-5.6,2.8c-1.8,2-2.4,4.5-2.2,7.1
	c0.2,2.1,0.9,4,2.4,5.6c2.8,2.8,7.7,3.5,11.3,1.6c0.7-0.4,1.4-0.9,1.9-1.4V26h2.7L76.9,17L76.9,17z M74.3,17L74.3,17L74.3,17
	c-0.1,2.7-1.1,4.9-3.5,6.1c-3.7,1.8-8.9,0.1-9.5-5.2c-0.2-2.3,0.3-4.4,2.1-6c2-1.8,4.4-2,6.8-1.2c2.4,0.9,3.6,2.7,4,5.1
	C74.2,16.2,74.2,16.6,74.3,17L74.3,17 M204.4,25.8V0.3h-2.7v9.8c-0.5-0.4-1-0.8-1.6-1.2c-1.9-1.1-4-1.4-6.2-1.2
	c-2.2,0.3-4.1,1.1-5.6,2.8c-1.8,2-2.4,4.5-2.2,7.1c0.2,2.1,0.9,4,2.4,5.6c2.8,2.8,7.7,3.5,11.3,1.6c0.7-0.4,1.4-0.9,1.9-1.4v2.4
	L204.4,25.8L204.4,25.8z M201.8,16.7v0.2c-0.1,2.7-1.1,4.8-3.5,6c-3.7,1.8-8.9,0.1-9.5-5.2c-0.2-2.3,0.3-4.4,2.1-6
	c2-1.8,4.4-2,6.8-1.2c2.4,0.9,3.6,2.7,4,5.1C201.7,16,201.8,16.4,201.8,16.7 M157.5,10c-3.7,0-6.4,2.7-6.4,6.7s2.7,6.7,6.4,6.7
	c2.4,0,4.3-0.8,5.6-2.3l1.5,1.6c-1.6,1.9-4.1,3.1-7.2,3.1c-5.2,0-8.9-3.7-8.9-9.1s3.7-9.1,8.9-9.1c2.9,0,5.3,1,6.9,2.7l-1.5,1.8
	C161.5,10.8,159.7,10,157.5,10 M97,9v17.1h-2.7v-2.4c-1.6,1.5-3.6,2.5-6.8,2.5c-4.2,0-6.7-2.7-6.7-7V9h2.7v9.5
	c0,3.2,1.6,5.3,4.7,5.3c3.7-0.1,6.2-3,6.2-6.9V9L97,9L97,9L97,9z M221.5,15.8c-0.2-3.5-2.5-5.8-6.1-5.8c-3.6,0-6,2.3-6.4,5.8H221.5z
	 M209,17.9c0.5,3.6,3.1,6,6.6,6c2.3,0,4.2-0.8,5.7-2.3l1.5,1.6c-1.7,1.9-4.3,3-7.4,3c-5.4,0-9.1-3.8-9.1-9.2s3.7-9.2,9.1-9.2
	c9.6,0,8.6,10.2,8.6,10.2L209,17.9L209,17.9L209,17.9z M231.8,9.9c-2,0-3.6,0.7-3.6,2.4c0,4.1,10.1,2,10.1,8.4
	c0,3.5-3.1,5.1-6.6,5.1c-2.6,0-5.2-0.9-6.9-2.5l1-1.9c1.5,1.4,3.9,2.3,6,2.3c2.1,0,3.8-0.8,3.9-2.6c0.1-4.4-10-2.2-10-8.5
	c0-3.4,3-4.9,6.3-4.9c2.2,0,4.2,0.6,5.7,1.6l-1,2.1C235.3,10.5,233.5,9.9,231.8,9.9"/>
<linearGradient id="SVGID_1_" gradientUnits="userSpaceOnUse" x1="32.1473" y1="196.506" x2="59.0322" y2="203.8117" gradientTransform="matrix(1 0 0 1 0 -182.1846)">
	<stop  offset="0" style="stop-color:#4DC2FF"/>
	<stop  offset="0.17" style="stop-color:#4DC2FF"/>
	<stop  offset="0.29" style="stop-color:#4FBCFF"/>
	<stop  offset="0.43" style="stop-color:#55ADFF"/>
	<stop  offset="0.59" style="stop-color:#5F94FF"/>
	<stop  offset="0.76" style="stop-color:#6D71FF"/>
	<stop  offset="0.93" style="stop-color:#7F45FF"/>
	<stop  offset="1" style="stop-color:#8733FF"/>
</linearGradient>
<path class="st1" d="M30.2,5.2c0,0,4.1-4.1,11.9-4.1c3.1,0,8.7,0.9,12.5,6.8l-6.1,4.5c0,0-1.7-3.4-6.6-3.4c-3.3,0-6.2,1.8-7,4.7
	C33.5,7.9,30.2,5.2,30.2,5.2 M39.5,25.5c0,0,0,1.9,0.5,4.2c0.5,1.9,1.4,3.7,1.4,3.7s9.4,0.5,13.5-7l-6.2-4.1
	C48.7,22.2,46.3,27.7,39.5,25.5"/>
<path class="st0" d="M38.5,25.3c0,0,0,2,0.4,4.2c0.3,1.7,0.9,3,1.3,4C31.1,33.4,25,25.9,25,17c0-3.6-2.1-7.8-7.5-7.8
	c-7.7,0-9.3,7.8-6.7,13.3c2.5,5.3,11.2,5.3,13.8-1.6c0.6,3.3,2,6.2,4.2,8.6C18.4,37.7,0.7,32.9,0.7,18C0.7,6.5,8,1.3,17.6,1.3
	s16.7,7.2,16.7,16.2C34.3,20.3,35.6,23.8,38.5,25.3"/>
</svg>
